<svg width="512" height="510" viewBox="0 0 512 510" fill="none" xmlns="http://www.w3.org/2000/svg">
<g clip-path="url(#clip0_5_22)">
<path d="M337.718 135.118H253.682C251.842 135.124 250.025 134.709 248.37 133.906C246.714 133.103 245.264 131.932 244.128 130.484C242.972 129.021 242.164 127.314 241.767 125.492C241.369 123.67 241.392 121.781 241.834 119.97C249.579 87.4992 249.579 53.6601 241.834 21.1899C241.392 19.3782 241.369 17.4896 241.767 15.6677C242.164 13.8459 242.972 12.1388 244.128 10.6763C245.263 9.22741 246.714 8.0569 248.37 7.25382C250.025 6.45075 251.842 6.03626 253.682 6.04193H337.718C340.62 6.05027 343.424 7.08919 345.632 8.97362C347.839 10.8581 349.307 13.4656 349.773 16.332C355.304 52.2855 355.304 88.8744 349.773 124.828C349.307 127.694 347.839 130.302 345.632 132.186C343.424 134.071 340.62 135.11 337.718 135.118Z" fill="#E6E6E6"/>
<path d="M253.682 12.3708C252.798 12.3678 251.926 12.5666 251.131 12.952C250.335 13.3373 249.639 13.8992 249.093 14.5947C248.531 15.3074 248.139 16.1389 247.947 17.0261C247.754 17.9132 247.766 18.8326 247.982 19.7143C255.959 53.1548 255.96 88.0051 247.983 121.446C247.767 122.327 247.754 123.246 247.947 124.133C248.139 125.02 248.531 125.852 249.093 126.564L249.093 126.565C249.639 127.26 250.335 127.822 251.131 128.208C251.926 128.593 252.798 128.792 253.682 128.789H337.718C339.112 128.79 340.46 128.295 341.523 127.394C342.586 126.492 343.295 125.242 343.524 123.866C348.956 88.5501 348.956 52.6098 343.524 17.2936C343.295 15.9178 342.586 14.6679 341.523 13.7664C340.46 12.8649 339.112 12.3703 337.718 12.3708L253.682 12.3708Z" fill="white"/>
<path d="M319.38 42.8028H275.281C273.605 42.801 271.997 42.1336 270.812 40.9471C269.627 39.7607 268.96 38.1521 268.958 36.4742V34.001C268.96 32.3231 269.627 30.7145 270.812 29.5281C271.997 28.3416 273.605 27.6743 275.281 27.6724H319.38C321.056 27.6743 322.663 28.3416 323.849 29.5281C325.034 30.7145 325.701 32.3231 325.703 34.001V36.4742C325.701 38.1521 325.034 39.7607 323.849 40.9472C322.663 42.1336 321.056 42.801 319.38 42.8028Z" fill="#E6E6E6"/>
<path d="M319.38 74.0523H275.281C273.605 74.0505 271.997 73.3831 270.812 72.1967C269.627 71.0102 268.96 69.4016 268.958 67.7237V65.2506C268.96 63.5727 269.627 61.964 270.812 60.7776C271.997 59.5912 273.605 58.9238 275.281 58.922H319.38C321.056 58.9238 322.663 59.5912 323.849 60.7776C325.034 61.964 325.701 63.5727 325.703 65.2506V67.7237C325.701 69.4016 325.034 71.0102 323.849 72.1967C322.663 73.3831 321.056 74.0505 319.38 74.0523Z" fill="#E6E6E6"/>
<path d="M319.38 105.302H275.281C273.605 105.3 271.997 104.633 270.812 103.446C269.627 102.26 268.96 100.651 268.958 98.9732V96.5001C268.96 94.8222 269.627 93.2136 270.812 92.0271C271.997 90.8407 273.605 90.1733 275.281 90.1715H319.38C321.056 90.1733 322.663 90.8407 323.849 92.0271C325.034 93.2136 325.701 94.8222 325.703 96.5001V98.9732C325.701 100.651 325.034 102.26 323.849 103.446C322.663 104.633 321.056 105.3 319.38 105.302Z" fill="#E6E6E6"/>
<path d="M495.797 215.283H411.761C409.921 215.289 408.104 214.874 406.449 214.071C404.793 213.268 403.342 212.098 402.207 210.649C401.051 209.187 400.243 207.479 399.845 205.657C399.448 203.835 399.471 201.947 399.913 200.135C407.658 167.665 407.658 133.826 399.913 101.355C399.471 99.5437 399.448 97.6551 399.846 95.8332C400.243 94.0113 401.051 92.3042 402.207 90.8418C403.342 89.3929 404.793 88.2224 406.448 87.4193C408.104 86.6162 409.921 86.2017 411.761 86.2074H495.797C498.698 86.2157 501.503 87.2547 503.71 89.1391C505.918 91.0235 507.386 93.6311 507.852 96.4974C513.383 132.451 513.383 169.04 507.852 204.993C507.386 207.86 505.918 210.467 503.71 212.352C501.503 214.236 498.698 215.275 495.797 215.283Z" fill="#E6E6E6"/>
<path d="M411.761 92.5363C410.877 92.5333 410.005 92.732 409.209 93.1174C408.414 93.5028 407.717 94.0647 407.172 94.7602C406.61 95.4729 406.218 96.3044 406.025 97.1915C405.833 98.0787 405.845 98.9981 406.061 99.8797C414.038 133.32 414.038 168.171 406.062 201.611C405.846 202.493 405.833 203.412 406.025 204.299C406.218 205.186 406.61 206.017 407.171 206.73L407.172 206.73C407.717 207.426 408.414 207.988 409.209 208.373C410.005 208.759 410.877 208.958 411.761 208.955H495.797C497.19 208.955 498.539 208.461 499.602 207.559C500.665 206.658 501.374 205.408 501.602 204.032C507.035 168.716 507.035 132.775 501.602 97.459C501.374 96.0833 500.665 94.8333 499.602 93.9318C498.539 93.0303 497.19 92.5358 495.797 92.5362L411.761 92.5363Z" fill="white"/>
<path d="M328.233 306.524H244.197C242.278 306.53 240.382 306.098 238.655 305.26C236.928 304.422 235.414 303.201 234.229 301.689C233.024 300.164 232.182 298.384 231.767 296.484C231.353 294.584 231.377 292.615 231.837 290.725C239.563 258.336 239.563 224.581 231.837 192.192C231.376 190.303 231.352 188.333 231.767 186.434C232.182 184.534 233.024 182.754 234.229 181.229C235.414 179.717 236.928 178.496 238.655 177.658C240.382 176.82 242.278 176.388 244.197 176.394H328.233C331.26 176.403 334.186 177.487 336.489 179.453C338.792 181.419 340.323 184.14 340.809 187.131C346.348 223.137 346.348 259.781 340.809 295.787C340.323 298.778 338.792 301.498 336.489 303.465C334.186 305.431 331.26 306.515 328.233 306.524Z" fill="#F2F2F2"/>
<path d="M477.458 138.79H433.36C431.683 138.789 430.076 138.121 428.891 136.935C427.705 135.748 427.039 134.14 427.037 132.462V129.989C427.039 128.311 427.705 126.702 428.891 125.516C430.076 124.329 431.683 123.662 433.36 123.66H477.458C479.135 123.662 480.742 124.329 481.927 125.516C483.113 126.702 483.78 128.311 483.781 129.989V132.462C483.779 134.14 483.113 135.748 481.927 136.935C480.742 138.121 479.135 138.789 477.458 138.79Z" fill="#E6E6E6"/>
<path d="M477.458 170.04H433.36C431.683 170.038 430.076 169.371 428.891 168.184C427.705 166.998 427.039 165.389 427.037 163.711V161.238C427.039 159.56 427.705 157.952 428.891 156.765C430.076 155.579 431.683 154.911 433.36 154.91H477.458C479.135 154.911 480.742 155.579 481.927 156.765C483.113 157.952 483.78 159.56 483.781 161.238V163.711C483.78 165.389 483.113 166.998 481.927 168.184C480.742 169.371 479.135 170.038 477.458 170.04Z" fill="#E6E6E6"/>
<path d="M286.45 265.284C299.837 265.284 310.689 254.423 310.689 241.024C310.689 227.625 299.837 216.763 286.45 216.763C273.064 216.763 262.212 227.625 262.212 241.024C262.212 254.423 273.064 265.284 286.45 265.284Z" fill="white"/>
<path d="M298.043 237.859H289.612V229.421C289.612 228.582 289.279 227.777 288.686 227.183C288.093 226.59 287.289 226.256 286.45 226.256C285.612 226.256 284.808 226.59 284.215 227.183C283.622 227.777 283.289 228.582 283.289 229.421V237.859H274.858C274.019 237.859 273.215 238.193 272.622 238.786C272.029 239.38 271.696 240.185 271.696 241.024C271.696 241.863 272.029 242.668 272.622 243.261C273.215 243.855 274.019 244.188 274.858 244.188H283.289V252.627C283.289 253.466 283.622 254.271 284.215 254.864C284.808 255.458 285.612 255.791 286.45 255.791C287.289 255.791 288.093 255.458 288.686 254.864C289.279 254.271 289.612 253.466 289.612 252.627V244.188H298.043C298.881 244.188 299.685 243.855 300.278 243.261C300.871 242.668 301.204 241.863 301.204 241.024C301.204 240.185 300.871 239.38 300.278 238.786C299.685 238.193 298.881 237.859 298.043 237.859Z" fill="#E6E6E6"/>
<path d="M317.012 17.9317H272.75C271.493 17.9303 270.287 17.4298 269.398 16.5399C268.509 15.6501 268.009 14.4436 268.008 13.1851V4.74664C268.009 3.48819 268.509 2.28168 269.398 1.39182C270.287 0.501964 271.493 0.00141825 272.75 0H317.012C318.27 0.00141825 319.475 0.501964 320.364 1.39182C321.253 2.28168 321.753 3.48819 321.755 4.74664V13.1851C321.753 14.4436 321.253 15.6501 320.364 16.5399C319.475 17.4298 318.27 17.9303 317.012 17.9317Z" fill="#CCCCCC"/>
<path d="M477.199 99.152H432.937C431.679 99.1506 430.474 98.65 429.585 97.7602C428.696 96.8703 428.196 95.6638 428.194 94.4054V85.9669C428.196 84.7085 428.696 83.502 429.585 82.6121C430.474 81.7223 431.679 81.2217 432.937 81.2203H477.199C478.456 81.2217 479.661 81.7223 480.551 82.6121C481.44 83.502 481.94 84.7085 481.941 85.9669V94.4054C481.94 95.6638 481.44 96.8703 480.551 97.7602C479.661 98.65 478.456 99.1506 477.199 99.152Z" fill="#CCCCCC"/>
<path d="M93.3676 496.879H106.288L110.327 446.999H93.3655L93.3676 496.879Z" fill="#FFB8B8"/>
<path d="M90.0724 492.657L115.517 492.656H115.518C117.647 492.656 119.756 493.076 121.723 493.891C123.69 494.707 125.478 495.903 126.984 497.41C128.489 498.917 129.684 500.706 130.499 502.675C131.313 504.644 131.733 506.754 131.733 508.886V509.413L90.0733 509.415L90.0724 492.657Z" fill="#2F2E41"/>
<path d="M23.813 496.879H36.7333L42.8805 446.999H23.8109L23.813 496.879Z" fill="#FFB8B8"/>
<path d="M20.5178 492.657L45.9619 492.656H45.963C48.0924 492.656 50.201 493.076 52.1683 493.891C54.1356 494.707 55.9232 495.903 57.4289 497.41C58.9346 498.917 60.129 500.706 60.9439 502.675C61.7588 504.644 62.1782 506.754 62.1782 508.886V509.413L20.5186 509.415L20.5178 492.657Z" fill="#2F2E41"/>
<path d="M26.1054 481.122C24.7874 481.122 23.5178 480.625 22.5486 479.731C22.0284 479.256 21.6094 478.681 21.3168 478.04C21.0242 477.399 20.864 476.705 20.8459 476L15.6644 290.129L89.2355 308.538L111.935 376.697C114.862 385.465 116.129 394.703 115.671 403.937L112.853 470.006C112.789 471.36 112.206 472.637 111.226 473.571C110.246 474.506 108.943 475.027 107.59 475.026H95.2499C93.9762 475.021 92.7471 474.556 91.788 473.717C90.8289 472.878 90.2041 471.722 90.0282 470.459L81.2086 397.528C80.4379 391.838 78.4494 386.382 75.3789 381.533L58.0224 354.027C57.9063 353.844 57.7364 353.7 57.5359 353.617C57.3353 353.534 57.1139 353.514 56.902 353.562C56.69 353.609 56.4979 353.721 56.3518 353.881C56.2057 354.042 56.1128 354.244 56.0858 354.46L42.4651 475.856C42.3188 477.088 41.7433 478.228 40.8398 479.076C39.9362 479.924 38.7627 480.426 37.5257 480.494L26.4053 481.113C26.3053 481.118 26.2055 481.122 26.1054 481.122Z" fill="#2F2E41"/>
<path d="M76.9924 169.789C91.2877 169.789 102.876 158.19 102.876 143.882C102.876 129.574 91.2877 117.975 76.9924 117.975C62.6972 117.975 51.1086 129.574 51.1086 143.882C51.1086 158.19 62.6972 169.789 76.9924 169.789Z" fill="#FFB8B8"/>
<path d="M88.883 316.097C88.4376 316.096 87.994 316.04 87.5626 315.929H87.5618L14.567 297.196C13.262 296.861 12.1345 296.039 11.4166 294.898C10.6986 293.757 10.4446 292.384 10.7069 291.062L27.4708 200.674C28.5152 195.449 30.8109 190.556 34.1609 186.415C37.5108 182.274 41.8149 179.009 46.7034 176.899C51.4667 174.789 56.6758 173.885 61.8708 174.267C67.0658 174.649 72.087 176.305 76.4914 179.088C77.5134 179.726 78.5428 180.422 79.5503 181.157C83.6065 184.152 86.9143 188.046 89.2143 192.535C91.5143 197.024 92.7439 201.986 92.8066 207.03L94.1397 310.748C94.1486 311.446 94.0194 312.138 93.7595 312.786C93.4996 313.433 93.1141 314.022 92.6253 314.519C92.1366 315.017 91.5542 315.412 90.9119 315.683C90.2695 315.954 89.58 316.094 88.883 316.097Z" fill="#42A884"/>
<path d="M22.0776 317.16C21.2069 315.877 20.6277 314.419 20.3808 312.889C20.134 311.358 20.2255 309.791 20.6489 308.3C21.0723 306.808 21.8173 305.427 22.8314 304.255C23.8456 303.083 25.1042 302.147 26.5186 301.515L23.2719 263.962L40.4772 273.295L40.9226 307.525C41.8271 309.974 41.8027 312.67 40.8542 315.102C39.9056 317.534 38.0986 319.533 35.7757 320.72C33.4529 321.908 30.7754 322.202 28.2508 321.545C25.7261 320.889 23.5297 319.329 22.0777 317.16H22.0776Z" fill="#FFB8B8"/>
<path d="M28.2244 296.548C27.7389 296.547 27.2554 296.486 26.7851 296.366C25.7736 296.107 24.8505 295.58 24.1137 294.84C23.3768 294.1 22.8536 293.174 22.5993 292.161L14.144 258.53C11.1891 246.784 12.5977 234.363 18.1078 223.579L35.8219 188.895C36.9417 184.742 39.6473 181.196 43.3552 179.022C47.0632 176.848 51.4763 176.219 55.643 177.272C57.7197 177.797 59.6717 178.729 61.3858 180.015C63.0998 181.301 64.5418 182.914 65.6281 184.762C66.7368 186.636 67.4619 188.712 67.7612 190.87C68.0604 193.027 67.9279 195.222 67.3713 197.328L42.1551 253.766L42.4546 287.558C42.4623 288.75 42.1042 289.916 41.4286 290.898C40.753 291.879 39.7926 292.63 38.677 293.048L30.2385 296.184C29.5941 296.425 28.912 296.548 28.2244 296.548Z" fill="#42A884"/>
<path d="M148.929 303.347C147.39 303.171 145.908 302.659 144.587 301.848C143.267 301.036 142.141 299.945 141.287 298.651C140.434 297.357 139.875 295.891 139.648 294.357C139.422 292.823 139.535 291.258 139.978 289.772L109.424 267.738L127.715 260.774L153.926 282.766C156.37 283.677 158.396 285.454 159.619 287.76C160.842 290.066 161.177 292.741 160.561 295.278C159.945 297.815 158.42 300.037 156.277 301.525C154.133 303.012 151.518 303.66 148.929 303.347H148.929Z" fill="#FFB8B8"/>
<path d="M132.934 287.257C132.033 287.256 131.144 287.046 130.338 286.643L99.3557 271.119C88.534 265.698 80.0476 256.527 75.4746 245.313L60.7656 209.249C58.3518 205.69 57.4319 201.324 58.2042 197.093C58.9765 192.862 61.3793 189.104 64.8944 186.629C66.6506 185.393 68.6351 184.519 70.7322 184.059C72.8293 183.598 74.9969 183.56 77.1089 183.946C79.2457 184.331 81.285 185.136 83.1086 186.315C84.9323 187.494 86.504 189.024 87.7327 190.815L114.021 246.762L139.805 268.578C140.713 269.35 141.362 270.382 141.665 271.535C141.968 272.688 141.909 273.906 141.498 275.025L138.368 283.472C137.96 284.58 137.221 285.536 136.253 286.211C135.28 286.892 134.121 287.257 132.934 287.257Z" fill="#42A884"/>
<path d="M71.5571 170.186C72.9324 170.788 75.7487 159.82 74.4872 157.626C72.611 154.364 72.7219 154.387 71.4765 152.229C70.231 150.071 69.9524 147.116 71.5652 145.217C73.178 143.318 76.9104 143.57 77.6464 145.951C77.1729 141.428 81.6425 137.792 86.0699 136.771C90.4973 135.749 95.1672 136.383 99.619 135.474C104.785 134.419 110.161 130.084 108.1 124.398C107.746 123.451 107.216 122.58 106.539 121.831C104.157 119.15 100.826 118.006 97.5683 116.899C90.792 114.597 83.8302 112.266 76.6786 112.52C70.7861 112.829 65.1112 114.85 60.3483 118.336C55.5855 121.822 51.9413 126.623 49.8618 132.15C49.3689 133.532 48.9871 134.952 48.72 136.396C46.2653 149.606 53.9299 162.637 66.3787 167.668L71.5571 170.186Z" fill="#2F2E41"/>
<path opacity="0.2" d="M40.9951 288.325L41.5821 253.591L59.9645 216.598L45.2105 254.571L40.9951 288.325Z" fill="black"/>
<path d="M207.691 375.493L130.087 343.221C128.386 342.52 126.867 341.439 125.646 340.062C124.425 338.684 123.534 337.046 123.041 335.272C122.534 333.478 122.442 331.591 122.774 329.756C123.105 327.921 123.851 326.185 124.953 324.682C144.553 297.671 157.524 266.422 162.819 233.462C163.105 231.62 163.808 229.867 164.874 228.337C165.939 226.807 167.339 225.541 168.967 224.634C170.571 223.732 172.36 223.209 174.197 223.103C176.033 222.997 177.87 223.312 179.567 224.024L257.171 256.296C259.847 257.418 262.039 259.455 263.355 262.043C264.672 264.631 265.027 267.602 264.359 270.428C255.684 305.754 241.658 339.543 222.769 370.62C221.239 373.088 218.884 374.933 216.123 375.825C213.362 376.717 210.374 376.6 207.691 375.493Z" fill="#E6E6E6"/>
<path d="M177.141 229.868C176.326 229.526 175.444 229.375 174.562 229.425C173.68 229.476 172.821 229.727 172.05 230.16C171.258 230.602 170.578 231.219 170.06 231.965C169.542 232.71 169.201 233.564 169.062 234.461C163.61 268.405 150.251 300.589 130.065 328.406C129.528 329.137 129.164 329.981 129.002 330.874C128.839 331.767 128.882 332.686 129.128 333.559L129.128 333.56C129.365 334.412 129.793 335.199 130.38 335.86C130.966 336.521 131.696 337.04 132.513 337.376L210.118 369.649C211.404 370.184 212.839 370.246 214.166 369.821C215.494 369.397 216.627 368.515 217.366 367.332C235.921 336.805 249.698 303.616 258.219 268.916C258.536 267.558 258.36 266.131 257.724 264.891C257.088 263.65 256.032 262.675 254.745 262.141L177.141 229.868Z" fill="white"/>
<path d="M218.462 301.709L177.738 284.773C176.191 284.128 174.963 282.894 174.323 281.343C173.683 279.793 173.684 278.051 174.325 276.501L175.273 274.217C175.918 272.668 177.151 271.439 178.7 270.798C180.249 270.158 181.989 270.159 183.538 270.801L224.262 287.736C225.809 288.382 227.038 289.615 227.677 291.166C228.317 292.717 228.316 294.458 227.675 296.009L226.727 298.292C226.082 299.841 224.85 301.071 223.3 301.711C221.751 302.352 220.011 302.351 218.462 301.709Z" fill="#42A884"/>
<path d="M206.483 330.566L165.759 313.631C164.212 312.986 162.983 311.752 162.343 310.201C161.704 308.65 161.705 306.909 162.346 305.359L163.294 303.075C163.939 301.526 165.171 300.297 166.721 299.656C168.27 299.016 170.01 299.017 171.559 299.659L212.283 316.594C213.83 317.239 215.058 318.473 215.698 320.024C216.338 321.575 216.337 323.316 215.696 324.866L214.748 327.15C214.103 328.699 212.87 329.929 211.321 330.569C209.771 331.209 208.031 331.208 206.483 330.566Z" fill="#42A884"/>
<path d="M234.78 261.152C234.17 261.151 233.566 261.033 233.002 260.803L191.967 244.197C190.802 243.724 189.871 242.808 189.38 241.65C188.889 240.491 188.878 239.185 189.347 238.018L192.508 230.194C192.979 229.027 193.895 228.096 195.052 227.604C196.21 227.113 197.516 227.102 198.682 227.573L239.717 244.179C240.882 244.652 241.812 245.568 242.303 246.727C242.794 247.885 242.806 249.191 242.336 250.358L239.176 258.182C238.821 259.058 238.213 259.808 237.43 260.337C236.647 260.866 235.724 261.15 234.78 261.152Z" fill="#CCCCCC"/>
<path d="M148.594 510H1.05386C0.774358 510 0.50632 509.889 0.308683 509.691C0.111047 509.493 0 509.225 0 508.945C0 508.665 0.111047 508.397 0.308683 508.199C0.50632 508.002 0.774358 507.89 1.05386 507.89H148.594C148.874 507.89 149.142 508.002 149.339 508.199C149.537 508.397 149.648 508.665 149.648 508.945C149.648 509.225 149.537 509.493 149.339 509.691C149.142 509.889 148.874 510 148.594 510Z" fill="#CCCCCC"/>
</g>
<defs>
<clipPath id="clip0_5_22">
<rect width="512" height="510" fill="white"/>
</clipPath>
</defs>
</svg>
