<svg width="133" height="37" viewBox="0 0 133 37" fill="none" xmlns="http://www.w3.org/2000/svg">
<path d="M28.1944 7.08383L24.5972 3.4866C24.288 3.1918 23.8772 3.02734 23.45 3.02734C23.0228 3.02734 22.612 3.1918 22.3028 3.4866L19.1042 6.69494H1.94444C1.42875 6.69494 0.934169 6.8998 0.569515 7.26445C0.20486 7.62911 0 8.12368 0 8.63938V30.0283C0 30.544 0.20486 31.0385 0.569515 31.4032C0.934169 31.7679 1.42875 31.9727 1.94444 31.9727H23.3333C23.849 31.9727 24.3436 31.7679 24.7083 31.4032C25.0729 31.0385 25.2778 30.544 25.2778 30.0283V12.2949L28.1944 9.37827C28.4984 9.07385 28.6691 8.66124 28.6691 8.23105C28.6691 7.80085 28.4984 7.38824 28.1944 7.08383ZM14.4181 20.4324L10.3444 21.3366L11.3167 17.3019L20.6014 7.99771L23.7417 11.138L14.4181 20.4324ZM24.7917 10.0297L21.6514 6.88938L23.45 5.09077L26.5903 8.23105L24.7917 10.0297Z" fill="black"/>
<path d="M51.98 28.5H47.78L38.27 14.13V28.5H34.07V7.53H38.27L47.78 21.93V7.53H51.98V28.5ZM63.5105 28.77C61.9105 28.77 60.4705 28.42 59.1905 27.72C57.9105 27 56.9005 25.99 56.1605 24.69C55.4405 23.39 55.0805 21.89 55.0805 20.19C55.0805 18.49 55.4505 16.99 56.1905 15.69C56.9505 14.39 57.9805 13.39 59.2805 12.69C60.5805 11.97 62.0305 11.61 63.6305 11.61C65.2305 11.61 66.6805 11.97 67.9805 12.69C69.2805 13.39 70.3005 14.39 71.0405 15.69C71.8005 16.99 72.1805 18.49 72.1805 20.19C72.1805 21.89 71.7905 23.39 71.0105 24.69C70.2505 25.99 69.2105 27 67.8905 27.72C66.5905 28.42 65.1305 28.77 63.5105 28.77ZM63.5105 25.11C64.2705 25.11 64.9805 24.93 65.6405 24.57C66.3205 24.19 66.8605 23.63 67.2605 22.89C67.6605 22.15 67.8605 21.25 67.8605 20.19C67.8605 18.61 67.4405 17.4 66.6005 16.56C65.7805 15.7 64.7705 15.27 63.5705 15.27C62.3705 15.27 61.3605 15.7 60.5405 16.56C59.7405 17.4 59.3405 18.61 59.3405 20.19C59.3405 21.77 59.7305 22.99 60.5105 23.85C61.3105 24.69 62.3105 25.11 63.5105 25.11ZM80.1514 15.33V23.37C80.1514 23.93 80.2814 24.34 80.5414 24.6C80.8214 24.84 81.2814 24.96 81.9214 24.96H83.8714V28.5H81.2314C77.6914 28.5 75.9214 26.78 75.9214 23.34V15.33H73.9414V11.88H75.9214V7.77H80.1514V11.88H83.8714V15.33H80.1514ZM102.342 19.83C102.342 20.43 102.302 20.97 102.222 21.45H90.0723C90.1723 22.65 90.5923 23.59 91.3323 24.27C92.0723 24.95 92.9823 25.29 94.0623 25.29C95.6223 25.29 96.7323 24.62 97.3923 23.28H101.922C101.442 24.88 100.522 26.2 99.1623 27.24C97.8023 28.26 96.1323 28.77 94.1523 28.77C92.5523 28.77 91.1123 28.42 89.8323 27.72C88.5723 27 87.5823 25.99 86.8623 24.69C86.1623 23.39 85.8123 21.89 85.8123 20.19C85.8123 18.47 86.1623 16.96 86.8623 15.66C87.5623 14.36 88.5423 13.36 89.8023 12.66C91.0623 11.96 92.5123 11.61 94.1523 11.61C95.7323 11.61 97.1423 11.95 98.3823 12.63C99.6423 13.31 100.612 14.28 101.292 15.54C101.992 16.78 102.342 18.21 102.342 19.83ZM97.9923 18.63C97.9723 17.55 97.5823 16.69 96.8223 16.05C96.0623 15.39 95.1323 15.06 94.0323 15.06C92.9923 15.06 92.1123 15.38 91.3923 16.02C90.6923 16.64 90.2623 17.51 90.1023 18.63H97.9923ZM113.028 15.33H110.118V28.5H105.858V15.33H103.968V11.88H105.858V11.04C105.858 9 106.438 7.5 107.598 6.54C108.758 5.58 110.508 5.13 112.848 5.19V8.73C111.828 8.71 111.118 8.88 110.718 9.24C110.318 9.6 110.118 10.25 110.118 11.19V11.88H113.028V15.33ZM131.65 11.88L121.36 36.36H116.89L120.49 28.08L113.83 11.88H118.54L122.83 23.49L127.18 11.88H131.65Z" fill="black"/>
</svg>
