<svg width="38" height="38" viewBox="0 0 38 38" fill="none" xmlns="http://www.w3.org/2000/svg">
<path d="M37.8723 35.2569L25.5455 22.9301C27.4583 20.4572 28.4931 17.4336 28.4931 14.2534C28.4931 10.4467 27.0074 6.8773 24.3209 4.18601C21.6343 1.49472 18.0554 0.0137939 14.2534 0.0137939C10.4515 0.0137939 6.87256 1.49946 4.18601 4.18601C1.49472 6.87256 0.0137939 10.4467 0.0137939 14.2534C0.0137939 18.0554 1.49946 21.6343 4.18601 24.3209C6.87256 27.0122 10.4467 28.4931 14.2534 28.4931C17.4336 28.4931 20.4524 27.4583 22.9254 25.5502L35.2522 37.8723C35.2883 37.9084 35.3312 37.9371 35.3785 37.9567C35.4257 37.9763 35.4763 37.9863 35.5275 37.9863C35.5786 37.9863 35.6292 37.9763 35.6765 37.9567C35.7237 37.9371 35.7666 37.9084 35.8028 37.8723L37.8723 35.8075C37.9084 35.7714 37.9371 35.7285 37.9567 35.6812C37.9763 35.634 37.9863 35.5833 37.9863 35.5322C37.9863 35.4811 37.9763 35.4305 37.9567 35.3832C37.9371 35.336 37.9084 35.2931 37.8723 35.2569ZM21.772 21.772C19.7594 23.7798 17.0919 24.8857 14.2534 24.8857C11.415 24.8857 8.74744 23.7798 6.73491 21.772C4.72712 19.7594 3.62117 17.0919 3.62117 14.2534C3.62117 11.415 4.72712 8.7427 6.73491 6.73491C8.74744 4.72712 11.415 3.62117 14.2534 3.62117C17.0919 3.62117 19.7642 4.72237 21.772 6.73491C23.7798 8.74744 24.8857 11.415 24.8857 14.2534C24.8857 17.0919 23.7798 19.7642 21.772 21.772Z" fill="#777777"/>
</svg>
